<svg width="40" height="40" viewBox="0 0 40 40" fill="none" xmlns="http://www.w3.org/2000/svg">
<rect x="1" y="1" width="38" height="38" fill="white" stroke="#252D35" stroke-width="2"/>
<path d="M26.7882 22.8117C25.7425 21.7661 24.498 20.992 23.1401 20.5235C24.5944 19.5218 25.5499 17.8455 25.5499 15.9499C25.5499 12.8896 23.0602 10.3999 19.9999 10.3999C16.9396 10.3999 14.4499 12.8896 14.4499 15.9499C14.4499 17.8455 15.4054 19.5218 16.8597 20.5235C15.5019 20.992 14.2573 21.7661 13.2117 22.8117C11.3985 24.6249 10.3999 27.0357 10.3999 29.5999H11.8999C11.8999 25.1335 15.5335 21.4999 19.9999 21.4999C24.4663 21.4999 28.0999 25.1335 28.0999 29.5999H29.5999C29.5999 27.0357 28.6013 24.6249 26.7882 22.8117ZM19.9999 19.9999C17.7667 19.9999 15.9499 18.1831 15.9499 15.9499C15.9499 13.7167 17.7667 11.8999 19.9999 11.8999C22.2331 11.8999 24.0499 13.7167 24.0499 15.9499C24.0499 18.1831 22.2331 19.9999 19.9999 19.9999Z" fill="#252D35"/>
</svg>
