<svg width="36" height="35" viewBox="0 0 36 35" fill="none" xmlns="http://www.w3.org/2000/svg">
<path d="M25.2558 19.74C27.6279 17.64 29.1628 14.7 29.1628 11.2C29.1628 5.04 24.1395 0 18 0C11.8605 0 6.83721 5.04 6.83721 11.2C6.83721 14.7 8.37209 17.64 10.7442 19.74C5.02326 22.4 0.697674 28.14 0 35H4.18605C5.16279 27.86 11.0233 22.4 18 22.4C24.9767 22.4 30.8372 27.86 31.814 35H36C35.3023 28.14 30.9767 22.4 25.2558 19.74ZM11.0233 11.2C11.0233 7.28 14.093 4.2 18 4.2C21.907 4.2 24.9767 7.28 24.9767 11.2C24.9767 15.12 21.907 18.2 18 18.2C14.093 18.2 11.0233 15.12 11.0233 11.2Z" fill="#252D35"/>
</svg>
