<svg width="40" height="40" viewBox="0 0 40 40" fill="none" xmlns="http://www.w3.org/2000/svg">
<rect opacity="0.5" width="40" height="40" fill="#252D35"/>
<path d="M24.4806 10H15.5192C12.4759 10 10 12.476 10 15.5193V24.4807C10 27.5241 12.4759 30 15.5192 30H24.4806C27.5241 30 30 27.524 30 24.4807V15.5193C30.0001 12.476 27.5241 10 24.4806 10ZM28.2256 24.4807C28.2256 26.5456 26.5456 28.2255 24.4807 28.2255H15.5192C13.4544 28.2256 11.7745 26.5456 11.7745 24.4807V15.5193C11.7745 13.4545 13.4544 11.7745 15.5192 11.7745H24.4806C26.5455 11.7745 28.2255 13.4545 28.2255 15.5193L28.2256 24.4807Z" fill="white"/>
<path d="M20 14.8468C17.1583 14.8468 14.8465 17.1586 14.8465 20.0003C14.8465 22.8418 17.1583 25.1535 20 25.1535C22.8417 25.1535 25.1535 22.8418 25.1535 20.0003C25.1535 17.1586 22.8417 14.8468 20 14.8468ZM20 23.3789C18.1369 23.3789 16.621 21.8632 16.621 20.0001C16.621 18.1369 18.1368 16.6211 20 16.6211C21.8632 16.6211 23.379 18.1369 23.379 20.0001C23.379 21.8632 21.8631 23.3789 20 23.3789Z" fill="white"/>
<path d="M25.3696 13.3421C25.0277 13.3421 24.6919 13.4805 24.4504 13.723C24.2078 13.9643 24.0683 14.3003 24.0683 14.6434C24.0683 14.9854 24.2079 15.3212 24.4504 15.5638C24.6918 15.8051 25.0277 15.9447 25.3696 15.9447C25.7127 15.9447 26.0475 15.8051 26.29 15.5638C26.5325 15.3212 26.6709 14.9853 26.6709 14.6434C26.6709 14.3003 26.5325 13.9643 26.29 13.723C26.0487 13.4805 25.7127 13.3421 25.3696 13.3421Z" fill="white"/>
</svg>
