<svg width="40" height="40" viewBox="0 0 40 40" fill="none" xmlns="http://www.w3.org/2000/svg">
<rect opacity="0.5" width="40" height="40" fill="#252D35"/>
<path d="M29.8217 24.1784C29.768 24.0883 29.4355 23.3658 27.8353 21.8807C26.1602 20.3256 26.3852 20.5781 28.4029 17.8891C29.6317 16.2515 30.123 15.2514 29.9692 14.8239C29.823 14.4164 28.9192 14.5239 28.9192 14.5239L25.9139 14.5414C25.9139 14.5414 25.6914 14.5114 25.5252 14.6102C25.3639 14.7077 25.2601 14.9327 25.2601 14.9327C25.2601 14.9327 24.7839 16.2003 24.1488 17.2778C22.81 19.5518 22.2737 19.6718 22.0549 19.5305C21.5461 19.2017 21.6736 18.2079 21.6736 17.5029C21.6736 15.299 22.0074 14.3801 21.0223 14.1426C20.6948 14.0639 20.4548 14.0114 19.6185 14.0026C18.5459 13.9914 17.6371 14.0064 17.1233 14.2576C16.7808 14.4251 16.517 14.7989 16.6783 14.8202C16.877 14.8464 17.3271 14.9414 17.5658 15.2664C17.8746 15.6852 17.8634 16.6278 17.8634 16.6278C17.8634 16.6278 18.0409 19.2217 17.4496 19.5443C17.0433 19.7655 16.487 19.3142 15.2932 17.2503C14.6819 16.194 14.2193 15.0252 14.2193 15.0252C14.2193 15.0252 14.1306 14.8077 13.9718 14.6914C13.7793 14.5501 13.5093 14.5051 13.5093 14.5051L10.6516 14.5226C10.6516 14.5226 10.2228 14.5351 10.0653 14.7214C9.92527 14.8877 10.054 15.2302 10.054 15.2302C10.054 15.2302 12.2917 20.4643 14.8244 23.1033C17.1483 25.5222 19.786 25.3634 19.786 25.3634H20.9811C20.9811 25.3634 21.3424 25.3234 21.5261 25.1247C21.6961 24.9422 21.6899 24.5996 21.6899 24.5996C21.6899 24.5996 21.6661 22.9958 22.4112 22.7595C23.145 22.527 24.0876 24.3096 25.0864 24.9959C25.8414 25.5147 26.4152 25.4009 26.4152 25.4009L29.0867 25.3634C29.0867 25.3634 30.4843 25.2772 29.8217 24.1784Z" fill="white"/>
</svg>
