<svg width="40" height="40" viewBox="0 0 40 40" fill="none" xmlns="http://www.w3.org/2000/svg">
<rect opacity="0.5" width="40" height="40" fill="#252D35"/>
<path d="M29.15 14.325C28.6075 13.36 28.0187 13.1825 26.82 13.115C25.6225 13.0338 22.6112 13 20.0025 13C17.3887 13 14.3762 13.0338 13.18 13.1138C11.9837 13.1825 11.3937 13.3587 10.8462 14.325C10.2875 15.2887 10 16.9488 10 19.8713C10 19.8738 10 19.875 10 19.875C10 19.8775 10 19.8788 10 19.8788V19.8813C10 22.7913 10.2875 24.4637 10.8462 25.4175C11.3937 26.3825 11.9825 26.5575 13.1788 26.6388C14.3763 26.7087 17.3887 26.75 20.0025 26.75C22.6112 26.75 25.6225 26.7087 26.8212 26.64C28.02 26.5587 28.6088 26.3838 29.1513 25.4188C29.715 24.465 30 22.7925 30 19.8825C30 19.8825 30 19.8788 30 19.8763V19.8725C30 16.9488 29.715 15.2887 29.15 14.325ZM17.5 23.625V16.125L23.75 19.875L17.5 23.625Z" fill="white"/>
</svg>
